<svg xmlns="http://www.w3.org/2000/svg" viewBox="0 0 64 64">
  <rect width="64" height="64" rx="12" fill="#0a1628"/>
  <!-- Антенна -->
  <line x1="32" y1="6" x2="32" y2="14" stroke="#00ff88" stroke-width="2.5" stroke-linecap="round"/>
  <circle cx="32" cy="5" r="3" fill="#00ff88"/>
  <!-- Голова -->
  <rect x="14" y="14" width="36" height="26" rx="5" fill="none" stroke="#00ff88" stroke-width="2"/>
  <!-- Глаза -->
  <rect x="20" y="22" width="8" height="7" rx="2" fill="#00ff88" opacity="0.9"/>
  <rect x="36" y="22" width="8" height="7" rx="2" fill="#00ff88" opacity="0.9"/>
  <!-- Рот -->
  <rect x="21" y="33" width="3" height="3" rx="1" fill="#00d4ff"/>
  <rect x="26" y="33" width="3" height="3" rx="1" fill="#00d4ff"/>
  <rect x="31" y="33" width="3" height="3" rx="1" fill="#00d4ff"/>
  <rect x="36" y="33" width="3" height="3" rx="1" fill="#00d4ff"/>
  <!-- Шея -->
  <rect x="29" y="40" width="6" height="4" rx="1" fill="#00ff88" opacity="0.6"/>
  <!-- Тело -->
  <rect x="16" y="44" width="32" height="16" rx="4" fill="none" stroke="#00ff88" stroke-width="2"/>
  <!-- Кнопка на теле -->
  <circle cx="32" cy="52" r="3.5" fill="none" stroke="#00d4ff" stroke-width="1.5"/>
  <circle cx="32" cy="52" r="1.5" fill="#00d4ff"/>
  <!-- Руки -->
  <rect x="6" y="45" width="8" height="3" rx="1.5" fill="#00ff88" opacity="0.7"/>
  <rect x="50" y="45" width="8" height="3" rx="1.5" fill="#00ff88" opacity="0.7"/>
</svg>
